<?xml version="1.0" encoding="utf-8"?>
<!-- Generator: Adobe Illustrator 18.1.0, SVG Export Plug-In . SVG Version: 6.00 Build 0)  -->
<svg version="1.1" id="Layer_1" xmlns="http://www.w3.org/2000/svg" xmlns:xlink="http://www.w3.org/1999/xlink" x="0px" y="0px"
	 viewBox="-301 393 8 8" enable-background="new -301 393 8 8" xml:space="preserve">
<rect x="-301" y="393" fill="#FBFFFB" width="8" height="8"/>
<path d="M-297.3,394.1c-0.3,0-0.6,0.3-0.6,0.7h-0.6c-0.3,0-0.6,0.3-0.6,0.7h4.4c0-0.4-0.3-0.7-0.6-0.7h-0.6c0-0.4-0.3-0.7-0.6-0.7
	H-297.3z M-298.6,396.1v3.2c0,0.1,0.1,0.1,0.1,0.1h2.9c0.1,0,0.1-0.1,0.1-0.1v-3.2h-0.6v2.3c0,0.2-0.1,0.3-0.3,0.3
	c-0.2,0-0.3-0.1-0.3-0.3v-2.3h-0.6v2.3c0,0.2-0.1,0.3-0.3,0.3s-0.3-0.1-0.3-0.3v-2.3H-298.6L-298.6,396.1z"/>
</svg>
