<?xml version="1.0" encoding="utf-8"?>
<!-- Generator: Adobe Illustrator 18.1.0, SVG Export Plug-In . SVG Version: 6.00 Build 0)  -->
<svg version="1.1" id="Layer_1" xmlns="http://www.w3.org/2000/svg" xmlns:xlink="http://www.w3.org/1999/xlink" x="0px" y="0px"
	 viewBox="-301 393 8 8" enable-background="new -301 393 8 8" xml:space="preserve">
<rect x="-301" y="393" fill="#FBFFFB" width="8" height="8"/>
<path fill="#A8A7A7" d="M-297.4,393.9c-0.4,0-0.8,0.4-0.8,0.8h-0.8c-0.4,0-0.8,0.4-0.8,0.8h5.5c0-0.4-0.4-0.8-0.8-0.8h-0.8
	c0-0.4-0.4-0.8-0.8-0.8H-297.4z M-298.9,396.2v3.8c0,0.1,0.1,0.1,0.1,0.1h3.6c0.1,0,0.1-0.1,0.1-0.1v-3.8h-0.8v2.7
	c0,0.2-0.2,0.4-0.4,0.4c-0.2,0-0.4-0.2-0.4-0.4v-2.7h-0.8v2.7c0,0.2-0.2,0.4-0.4,0.4c-0.2,0-0.4-0.2-0.4-0.4v-2.7H-298.9
	L-298.9,396.2z"/>
</svg>
